<svg width="1512" height="2477" viewBox="0 0 1512 2477" fill="none" xmlns="http://www.w3.org/2000/svg">
<g clip-path="url(#clip0_2052_277)">
<rect width="1512" height="2477" fill="#605BEF"/>
<path d="M1358.5 564.738C1364.82 567.465 1365.87 575.998 1360.38 580.167L1330.12 603.178C1324.59 607.383 1316.58 604.001 1315.74 597.104L1311.09 559.044C1310.25 552.147 1317.2 546.938 1323.58 549.688L1358.5 564.738Z" stroke="#4B47D2" stroke-width="16"/>
<path d="M1042.5 2354.74C1048.82 2357.47 1049.87 2366 1044.38 2370.17L1014.12 2393.18C1008.59 2397.38 1000.58 2394 999.736 2387.1L995.088 2349.04C994.246 2342.15 1001.2 2336.94 1007.58 2339.69L1042.5 2354.74Z" stroke="#4B47D2" stroke-width="16"/>
<rect x="-44" y="-21.65" width="329.919" height="250.25" rx="59" transform="rotate(-28.288 -44 -21.65)" fill="#4B47D2"/>
<rect x="94" y="1415.35" width="329.919" height="250.25" rx="59" transform="rotate(-28.288 94 1415.35)" fill="#4B47D2"/>
<rect x="1153" y="759.381" width="279.341" height="267.25" rx="59" transform="rotate(-28.288 1153 759.381)" fill="#4B47D2"/>
<rect x="1066" y="2155.38" width="279.341" height="267.25" rx="59" transform="rotate(-28.288 1066 2155.38)" fill="#4B47D2"/>
<rect x="1100.55" y="811" width="54.6212" height="56.5871" rx="10" transform="rotate(37.6257 1100.55 811)" fill="#4B47D2"/>
<rect x="1394.55" y="1916" width="54.6212" height="56.5871" rx="10" transform="rotate(37.6257 1394.55 1916)" fill="#4B47D2"/>
<rect x="856.546" y="1735" width="54.6212" height="56.5871" rx="10" transform="rotate(37.6257 856.546 1735)" fill="#4B47D2"/>
<rect x="61.5464" y="200" width="54.6212" height="56.5871" rx="10" transform="rotate(37.6257 61.5464 200)" fill="#4B47D2"/>
<rect x="61.5464" y="1304" width="54.6212" height="56.5871" rx="10" transform="rotate(37.6257 61.5464 1304)" fill="#4B47D2"/>
<path d="M1356.5 -179C1482.15 -179 1583 -79.4997 1583 42C1583 163.5 1482.15 263 1356.5 263C1230.85 263 1130 163.5 1130 42C1130 -79.4997 1230.85 -179 1356.5 -179Z" stroke="#4B47D2" stroke-width="54"/>
<path d="M1153.5 1311C1279.15 1311 1380 1410.5 1380 1532C1380 1653.5 1279.15 1753 1153.5 1753C1027.85 1753 927 1653.5 927 1532C927 1410.5 1027.85 1311 1153.5 1311Z" stroke="#4B47D2" stroke-width="54"/>
<path d="M54 682C131.662 682 192 741.162 192 811C192 880.838 131.662 940 54 940C-23.6622 940 -84 880.838 -84 811C-84 741.162 -23.6622 682 54 682Z" stroke="#4B47D2" stroke-width="54"/>
<path d="M280 2035C357.662 2035 418 2094.16 418 2164C418 2233.84 357.662 2293 280 2293C202.338 2293 142 2233.84 142 2164C142 2094.16 202.338 2035 280 2035Z" stroke="#4B47D2" stroke-width="54"/>
<path d="M387.498 826.738C393.824 829.465 394.866 837.998 389.382 842.167L359.117 865.178C353.586 869.383 345.578 866.001 344.736 859.104L340.088 821.044C339.246 814.147 346.205 808.938 352.585 811.688L387.498 826.738Z" stroke="#4B47D2" stroke-width="16"/>
<path d="M553.405 2284.58C555.125 2291.25 549.019 2297.3 542.364 2295.52L505.637 2285.7C498.925 2283.9 496.693 2275.5 501.628 2270.61L528.864 2243.62C533.799 2238.73 542.179 2241.04 543.914 2247.77L553.405 2284.58Z" stroke="#4B47D2" stroke-width="16"/>
<path d="M452.498 51.738C458.824 54.4651 459.866 62.998 454.382 67.1673L424.117 90.1777C418.586 94.3828 410.578 91.0006 409.736 84.1039L405.088 46.0439C404.246 39.1472 411.205 33.938 417.585 36.6884L452.498 51.738Z" stroke="#4B47D2" stroke-width="16"/>
<path d="M523.498 1562.74C529.824 1565.47 530.866 1574 525.382 1578.17L495.117 1601.18C489.587 1605.38 481.578 1602 480.736 1595.1L476.088 1557.04C475.246 1550.15 482.205 1544.94 488.585 1547.69L523.498 1562.74Z" stroke="#4B47D2" stroke-width="16"/>
<path d="M1000.5 24C1018.64 24 1033 38.2904 1033 55.5C1033 72.7096 1018.64 87 1000.5 87C982.361 87 968 72.7096 968 55.5C968 38.2904 982.361 24 1000.5 24Z" stroke="#4B47D2" stroke-width="16"/>
<path d="M208.5 1890C226.639 1890 241 1904.29 241 1921.5C241 1938.71 226.639 1953 208.5 1953C190.361 1953 176 1938.71 176 1921.5C176 1904.29 190.361 1890 208.5 1890Z" stroke="#4B47D2" stroke-width="16"/>
<path d="M1271.5 1188C1289.64 1188 1304 1202.29 1304 1219.5C1304 1236.71 1289.64 1251 1271.5 1251C1253.36 1251 1239 1236.71 1239 1219.5C1239 1202.29 1253.36 1188 1271.5 1188Z" stroke="#4B47D2" stroke-width="16"/>
</g>
<defs>
<clipPath id="clip0_2052_277">
<rect width="1512" height="2477" fill="white"/>
</clipPath>
</defs>
</svg>
